<mxfile host="app.diagrams.net" modified="2023-07-14T16:55:51.924Z" agent="5.0 (Windows NT 10.0; Win64; x64) AppleWebKit/537.36 (KHTML, like Gecko) Chrome/114.0.0.0 Safari/537.36" version="20.6.0" etag="RlE-wLBO76rxTSKlfK9x" type="github">
  <diagram id="ZGxEpbVqqo_ixge0p_Dh" name="Page-1">
    <mxGraphModel dx="1422" dy="752" grid="1" gridSize="10" guides="1" tooltips="1" connect="1" arrows="1" fold="1" page="1" pageScale="1" pageWidth="850" pageHeight="1100" math="0" shadow="0">
      <root>
        <mxCell id="0" />
        <mxCell id="1" parent="0" />
        <mxCell id="RVYrwTJS4D03xRHI77SV-1" value="MaterialApp" style="rounded=0;whiteSpace=wrap;html=1;" vertex="1" parent="1">
          <mxGeometry x="360" y="70" width="120" height="60" as="geometry" />
        </mxCell>
        <mxCell id="RVYrwTJS4D03xRHI77SV-2" value="" style="endArrow=classic;html=1;rounded=0;" edge="1" parent="1">
          <mxGeometry width="50" height="50" relative="1" as="geometry">
            <mxPoint x="419.5" y="130" as="sourcePoint" />
            <mxPoint x="419.5" y="240" as="targetPoint" />
          </mxGeometry>
        </mxCell>
        <mxCell id="RVYrwTJS4D03xRHI77SV-13" value="" style="edgeStyle=orthogonalEdgeStyle;rounded=0;orthogonalLoop=1;jettySize=auto;html=1;" edge="1" parent="1" source="RVYrwTJS4D03xRHI77SV-3" target="RVYrwTJS4D03xRHI77SV-12">
          <mxGeometry relative="1" as="geometry" />
        </mxCell>
        <mxCell id="RVYrwTJS4D03xRHI77SV-30" style="edgeStyle=orthogonalEdgeStyle;rounded=0;orthogonalLoop=1;jettySize=auto;html=1;" edge="1" parent="1" source="RVYrwTJS4D03xRHI77SV-3" target="RVYrwTJS4D03xRHI77SV-6">
          <mxGeometry relative="1" as="geometry" />
        </mxCell>
        <mxCell id="RVYrwTJS4D03xRHI77SV-31" style="edgeStyle=orthogonalEdgeStyle;rounded=0;orthogonalLoop=1;jettySize=auto;html=1;entryX=0.5;entryY=0;entryDx=0;entryDy=0;" edge="1" parent="1" source="RVYrwTJS4D03xRHI77SV-3" target="RVYrwTJS4D03xRHI77SV-4">
          <mxGeometry relative="1" as="geometry" />
        </mxCell>
        <mxCell id="RVYrwTJS4D03xRHI77SV-3" value="Scaffold" style="rounded=0;whiteSpace=wrap;html=1;" vertex="1" parent="1">
          <mxGeometry x="360" y="240" width="120" height="60" as="geometry" />
        </mxCell>
        <mxCell id="RVYrwTJS4D03xRHI77SV-4" value="Color" style="rounded=0;whiteSpace=wrap;html=1;" vertex="1" parent="1">
          <mxGeometry x="50" y="380" width="120" height="60" as="geometry" />
        </mxCell>
        <mxCell id="RVYrwTJS4D03xRHI77SV-11" value="" style="edgeStyle=orthogonalEdgeStyle;rounded=0;orthogonalLoop=1;jettySize=auto;html=1;" edge="1" parent="1" source="RVYrwTJS4D03xRHI77SV-6" target="RVYrwTJS4D03xRHI77SV-10">
          <mxGeometry relative="1" as="geometry" />
        </mxCell>
        <mxCell id="RVYrwTJS4D03xRHI77SV-6" value="Center" style="rounded=0;whiteSpace=wrap;html=1;" vertex="1" parent="1">
          <mxGeometry x="560" y="380" width="120" height="60" as="geometry" />
        </mxCell>
        <mxCell id="RVYrwTJS4D03xRHI77SV-23" value="" style="edgeStyle=orthogonalEdgeStyle;rounded=0;orthogonalLoop=1;jettySize=auto;html=1;" edge="1" parent="1" source="RVYrwTJS4D03xRHI77SV-10" target="RVYrwTJS4D03xRHI77SV-22">
          <mxGeometry relative="1" as="geometry" />
        </mxCell>
        <mxCell id="RVYrwTJS4D03xRHI77SV-10" value="Image" style="ellipse;whiteSpace=wrap;html=1;rounded=0;" vertex="1" parent="1">
          <mxGeometry x="560" y="520" width="120" height="60" as="geometry" />
        </mxCell>
        <mxCell id="RVYrwTJS4D03xRHI77SV-16" value="" style="edgeStyle=orthogonalEdgeStyle;rounded=0;orthogonalLoop=1;jettySize=auto;html=1;" edge="1" parent="1" source="RVYrwTJS4D03xRHI77SV-12" target="RVYrwTJS4D03xRHI77SV-15">
          <mxGeometry relative="1" as="geometry" />
        </mxCell>
        <mxCell id="RVYrwTJS4D03xRHI77SV-27" value="" style="edgeStyle=orthogonalEdgeStyle;rounded=0;orthogonalLoop=1;jettySize=auto;html=1;" edge="1" parent="1" source="RVYrwTJS4D03xRHI77SV-12" target="RVYrwTJS4D03xRHI77SV-26">
          <mxGeometry relative="1" as="geometry" />
        </mxCell>
        <mxCell id="RVYrwTJS4D03xRHI77SV-12" value="App Bar" style="rounded=0;whiteSpace=wrap;html=1;" vertex="1" parent="1">
          <mxGeometry x="360" y="380" width="120" height="60" as="geometry" />
        </mxCell>
        <mxCell id="RVYrwTJS4D03xRHI77SV-21" value="" style="edgeStyle=orthogonalEdgeStyle;rounded=0;orthogonalLoop=1;jettySize=auto;html=1;" edge="1" parent="1" source="RVYrwTJS4D03xRHI77SV-15" target="RVYrwTJS4D03xRHI77SV-20">
          <mxGeometry relative="1" as="geometry" />
        </mxCell>
        <mxCell id="RVYrwTJS4D03xRHI77SV-15" value="Title" style="rounded=0;whiteSpace=wrap;html=1;" vertex="1" parent="1">
          <mxGeometry x="360" y="520" width="120" height="60" as="geometry" />
        </mxCell>
        <mxCell id="RVYrwTJS4D03xRHI77SV-25" value="" style="edgeStyle=orthogonalEdgeStyle;rounded=0;orthogonalLoop=1;jettySize=auto;html=1;" edge="1" parent="1" source="RVYrwTJS4D03xRHI77SV-20" target="RVYrwTJS4D03xRHI77SV-24">
          <mxGeometry relative="1" as="geometry" />
        </mxCell>
        <mxCell id="RVYrwTJS4D03xRHI77SV-20" value="Center" style="ellipse;whiteSpace=wrap;html=1;rounded=0;" vertex="1" parent="1">
          <mxGeometry x="360" y="660" width="120" height="60" as="geometry" />
        </mxCell>
        <mxCell id="RVYrwTJS4D03xRHI77SV-22" value="NetworkImage" style="whiteSpace=wrap;html=1;rounded=0;" vertex="1" parent="1">
          <mxGeometry x="560" y="660" width="120" height="60" as="geometry" />
        </mxCell>
        <mxCell id="RVYrwTJS4D03xRHI77SV-24" value="Text" style="whiteSpace=wrap;html=1;rounded=0;" vertex="1" parent="1">
          <mxGeometry x="360" y="800" width="120" height="60" as="geometry" />
        </mxCell>
        <mxCell id="RVYrwTJS4D03xRHI77SV-26" value="Color" style="rounded=0;whiteSpace=wrap;html=1;" vertex="1" parent="1">
          <mxGeometry x="220" y="520" width="120" height="60" as="geometry" />
        </mxCell>
      </root>
    </mxGraphModel>
  </diagram>
</mxfile>
